# xmcd
#
# Track frame offsets: 
#        150
#        12565
#        27326
#        40733
#        56606
#        70443
#        81476
#        95358
#        108933
#        125873
#        142521
#        157817
#
# Disc length: 2388 seconds
#
# Revision: 0
# Processed by: cddbd v1.5.2PL0 Copyright (c) Steve Scherf et al.
# Submitted via: ExactAudioCopy v0.99pb5
#
DISCID=9b09520c
DTITLE=Various Artist - Swing Country
DYEAR=1900
DGENRE=Country
TTITLE0=Christian Lemieux - Les Madelinauds
TTITLE1=Chantal et Lynda - Les violons de l'acadie
TTITLE2=Jack Conroy - Stand-up
TTITLE3=Robert Sawyer - Un an de plus
TTITLE4=Pierre Charron - Mille après mille
TTITLE5=Christian Lemieux - Sold
TTITLE6=Robert Sawyer - Repartir à zéro
TTITLE7=Chantal Boucher - Si tu pars
TTITLE8=Carol Conroy - Blue roses
TTITLE9=Christian et Véro - À l'hôtel
TTITLE10=Chantal Boucher - J'suis prêt mais j'attends
TTITLE11=Robert Sawyer - Friends and no places
EXTD=
EXTT0=
EXTT1=
EXTT2=
EXTT3=
EXTT4=
EXTT5=
EXTT6=
EXTT7=
EXTT8=
EXTT9=
EXTT10=
EXTT11=
PLAYORDER=
